<svg width="46" height="48" viewBox="0 0 46 48" fill="none" xmlns="http://www.w3.org/2000/svg">
<path opacity="0.25" d="M0.548828 33.3193C0.548828 30.2301 1.05664 27.2891 2.07227 24.4961C3.08789 21.6608 4.39974 19.0371 6.00781 16.625C7.61589 14.1706 9.39323 11.9489 11.3398 9.95996C13.3288 7.97103 15.2542 6.27832 17.1162 4.88184C19.0205 3.44303 20.7555 2.34277 22.3213 1.58105C23.9294 0.819336 25.1777 0.438477 26.0664 0.438477C26.6589 0.438477 26.9551 0.650065 26.9551 1.07324C26.9551 1.66569 26.4049 2.36393 25.3047 3.16797C24.2467 3.92969 22.9772 4.96647 21.4961 6.27832C20.6074 7.04004 19.7188 7.92871 18.8301 8.94434C17.9414 9.91764 17.1585 10.9756 16.4814 12.1182C15.8044 13.2607 15.2542 14.488 14.8311 15.7998C14.4079 17.0693 14.1963 18.36 14.1963 19.6719C14.1963 21.4915 14.5771 23.0996 15.3389 24.4961C16.1429 25.8926 17.0104 27.2679 17.9414 28.6221C18.9147 29.9339 19.7822 31.2881 20.5439 32.6846C21.348 34.0811 21.75 35.6891 21.75 37.5088C21.75 40.7673 20.819 43.264 18.957 44.999C17.1374 46.734 14.7887 47.6016 11.9111 47.6016C10.3877 47.6016 8.94889 47.3688 7.59473 46.9033C6.24056 46.4378 5.03451 45.6549 3.97656 44.5547C2.91862 43.4121 2.07227 41.931 1.4375 40.1113C0.845052 38.2917 0.548828 36.0277 0.548828 33.3193ZM26.9551 29.8281C26.9551 27.3737 27.2513 25.0674 27.8438 22.9092C28.4362 20.751 29.1979 18.762 30.1289 16.9424C31.0599 15.1227 32.0967 13.5146 33.2393 12.1182C34.4242 10.6794 35.5667 9.47331 36.667 8.5C37.7673 7.48438 38.7829 6.72266 39.7139 6.21484C40.6872 5.66471 41.4277 5.38965 41.9355 5.38965C42.528 5.38965 42.8242 5.68587 42.8242 6.27832C42.8242 6.78613 42.5068 7.37858 41.8721 8.05566C41.2796 8.73275 40.6025 9.53678 39.8408 10.4678C39.0791 11.3564 38.3809 12.4355 37.7461 13.7051C37.1536 14.9323 36.8574 16.3711 36.8574 18.0215C36.8574 19.7142 37.3018 21.1318 38.1904 22.2744C39.1214 23.417 40.1159 24.5173 41.1738 25.5752C42.2741 26.5908 43.2686 27.6699 44.1572 28.8125C45.0882 29.9551 45.5537 31.3727 45.5537 33.0654C45.5537 34.0387 45.3633 35.0332 44.9824 36.0488C44.6439 37.0221 44.1149 37.9108 43.3955 38.7148C42.7184 39.5189 41.8509 40.1748 40.793 40.6826C39.7773 41.1481 38.5924 41.3809 37.2383 41.3809C35.6302 41.3809 34.1914 41.0846 32.9219 40.4922C31.6523 39.8997 30.5732 39.0957 29.6846 38.0801C28.7959 37.0645 28.1188 35.8584 27.6533 34.4619C27.1878 33.0231 26.9551 31.4785 26.9551 29.8281Z" fill="#DADADA"/>
</svg>
