<svg width="24" height="18" viewBox="0 0 24 18" fill="none" xmlns="http://www.w3.org/2000/svg">
<path d="M23.5853 3.32692C23.2915 2.05055 22.2475 1.10888 20.9907 0.968413C18.0146 0.636191 15.0023 0.634457 12.0038 0.636191C9.00492 0.634457 5.99213 0.636191 3.01601 0.968413C1.75996 1.10888 0.716717 2.05055 0.422895 3.32692C0.00470711 5.1446 0 7.12876 0 9.00021C0 10.8716 0 12.8556 0.418188 14.673C0.711515 15.9491 1.755 16.8908 3.0118 17.0315C5.98767 17.364 9.00022 17.3657 11.9991 17.364C14.9985 17.3657 18.0103 17.364 20.986 17.0315C22.242 16.891 23.2863 15.9494 23.5801 14.673C23.9985 12.8553 24 10.8714 24 9.00021C24 7.12876 24.0035 5.1446 23.5853 3.32692ZM8.90285 12.7253C8.90285 10.0705 8.90285 7.4434 8.90285 4.78835C11.4464 6.1155 13.9731 7.43373 16.5328 8.76906C13.9811 10.0925 11.4531 11.4028 8.90285 12.7253Z" fill="#FF0000"/>
</svg>
